<?xml version="1.0" encoding="utf-8"?>
<!-- Generator: Adobe Illustrator 26.4.1, SVG Export Plug-In . SVG Version: 6.00 Build 0)  -->
<svg version="1.1" id="Vrstva_1" xmlns="http://www.w3.org/2000/svg" xmlns:xlink="http://www.w3.org/1999/xlink" x="0px" y="0px"
	 viewBox="0 0 500 500" style="enable-background:new 0 0 500 500;" xml:space="preserve">
<style type="text/css">
	.st0{fill:#0290D8;}
</style>
<path class="st0" d="M250,39.1c-97.1,0-175.8,78.7-175.8,175.8c0,32,8.6,62,23.5,87.9c25.5,40.8,46.4,68,152.3,158.2
	c105.9-90.2,126.8-117.4,152.3-158.2c15-25.9,23.5-55.9,23.5-87.9C425.8,117.8,347.1,39.1,250,39.1z M250,340.5
	c-69.4,0-125.7-56.3-125.7-125.7S180.6,89.2,250,89.2s125.7,56.3,125.7,125.7S319.4,340.5,250,340.5z"/>
</svg>
