<?xml version="1.0" encoding="UTF-8"?><svg id="Vrstva_1" xmlns="http://www.w3.org/2000/svg" viewBox="0 0 150 60"><defs><style>.cls-1{opacity:.5;}</style></defs><g class="cls-1"><g><rect x="25.5" y="37.9" width=".81" height="2.22" rx=".25" ry=".25"/><rect x="29.38" y="37.9" width=".81" height="2.22" rx=".25" ry=".25"/><rect x="33.26" y="37.9" width=".81" height="2.22" rx=".25" ry=".25"/><path d="M31.97,5.36h-4.37c-6.87,0-12.47,5.59-12.47,12.47v25.19c0,3.02,1.09,5.93,3.07,8.19,.89,1.02,1.94,1.89,3.09,2.56h.02c1.37,.81,2.89,1.35,4.48,1.58,0,0,.01,0,.02,0h.08l.02-.02h.02l.02-.02h.02v-.03l.03-.02h.01v-.03l.02-.02v-.04h.01s0-.02,0-.02h0v-3.57c0-1.4,.56-2.73,1.53-3.65,.61-.58,1.35-.99,2.23-1.24,.87,.25,1.62,.67,2.23,1.24,.97,.92,1.53,2.25,1.53,3.65v3.56h0s0,.02,0,.03h0v.04h.02v.03h.02v.03h.02l.02,.02h.01l.02,.02h.01s.02,.01,.03,.01h.01s.03,0,.04,0c0,0,.02,0,.03,0,1.59-.23,3.11-.77,4.48-1.57h.02c1.15-.69,2.2-1.55,3.09-2.57,1.98-2.27,3.07-5.18,3.07-8.19V17.83c0-6.87-5.59-12.47-12.47-12.47Zm5.99,31.85v16.28c-1.22,.7-2.57,1.2-4.01,1.44v-3.32c0-1.51-.6-2.94-1.66-3.94-.67-.63-1.49-1.09-2.45-1.35h-.11c-.96,.27-1.78,.72-2.45,1.35-1.05,1-1.66,2.44-1.66,3.94v3.32c-1.44-.24-2.79-.73-4.01-1.44v-16.28c0-.31-.2-.57-.49-.66v-.21l1.03-1.28c.48-.6,.88-1.26,1.19-1.98l3.83-9.66c.07-.16,.23-.27,.41-.27h1.16v-2.77l.23-.45c.06-.11,.09-.23,.1-.35l.03-.25c.02-.17-.02-.35-.1-.52-.06-.12-.09-.24-.09-.38,0-.15,.04-.31,.12-.44,.13-.22,.22-.49,.24-.78l.02-.16,.48-.41,.48,.41,.02,.16c.03,.3,.11,.56,.24,.78,.08,.13,.12,.28,.12,.44,0,.13-.03,.26-.09,.38-.08,.17-.12,.35-.1,.52l.03,.25c.01,.12,.05,.24,.1,.35l.23,.45v2.77h1.16c.18,0,.34,.11,.41,.26l3.84,9.67c.31,.71,.71,1.37,1.19,1.97l1.03,1.28v.21c-.28,.09-.49,.35-.49,.66Zm6.08,5.81c0,4.24-2.25,8.06-5.67,10.22v-16.03c0-.16,.13-.28,.28-.28h.2v-.73l-1.12-1.39c-.46-.57-.84-1.2-1.13-1.87l-3.84-9.67c-.14-.31-.44-.51-.78-.51h-.75v-2.47l-.28-.53c-.03-.06-.05-.13-.06-.21l-.03-.25c0-.1,.01-.2,.06-.3,.09-.17,.13-.36,.13-.56,0-.23-.06-.45-.18-.64-.1-.17-.17-.38-.19-.62l-.03-.32-.67-.57v-1.16c0-.11-.09-.2-.2-.2s-.2,.09-.2,.2v1.16l-.67,.57-.03,.32c-.02,.24-.09,.45-.19,.62-.12,.19-.18,.42-.18,.64,0,.19,.04,.38,.13,.56,.05,.1,.07,.2,.06,.3l-.03,.25c0,.07-.03,.14-.06,.21l-.28,.53v2.47h-.75c-.34,0-.65,.2-.79,.52l-3.83,9.66c-.29,.67-.67,1.3-1.13,1.88l-1.12,1.39v.73h.2c.16,0,.28,.13,.28,.28v16.03c-3.42-2.16-5.67-5.98-5.67-10.22V17.83c0-6.65,5.41-12.06,12.06-12.06h4.37c6.65,0,12.06,5.41,12.06,12.06v25.19Z"/></g><g><path d="M58.32,24.92c0,.49-.18,.88-.54,1.16s-.84,.43-1.43,.43c-.72,0-1.26-.08-1.65-.24v-.41c.42,.18,.96,.27,1.61,.27,.48,0,.86-.11,1.14-.33s.42-.51,.42-.87c0-.22-.05-.41-.14-.55s-.25-.28-.46-.4-.52-.25-.93-.39c-.6-.21-1.01-.43-1.24-.67s-.34-.56-.34-.96c0-.44,.17-.8,.51-1.07s.78-.41,1.32-.41,1.07,.1,1.55,.31l-.15,.35c-.49-.2-.95-.3-1.39-.3s-.78,.1-1.03,.3-.38,.47-.38,.82c0,.22,.04,.39,.12,.53s.21,.26,.39,.37,.49,.24,.92,.4c.46,.16,.8,.31,1.03,.46s.4,.32,.5,.5,.16,.42,.16,.68Z"/><path d="M64.01,23.45c0,.98-.26,1.73-.77,2.23s-1.27,.76-2.27,.76h-1.4v-5.86h1.58c.93,0,1.65,.24,2.13,.73s.73,1.2,.73,2.14Zm-.44,.02c0-.84-.21-1.47-.64-1.89s-1.05-.63-1.88-.63h-1.08v5.14h.97c1.75,0,2.62-.87,2.62-2.61Z"/><path d="M65.76,23.88v2.55h-.41v-5.86h1.39c.73,0,1.26,.13,1.61,.4s.52,.67,.52,1.21c0,.39-.1,.72-.31,.99s-.52,.46-.94,.58l1.59,2.67h-.49l-1.51-2.55h-1.45Zm0-.35h1.12c.49,0,.88-.11,1.15-.33s.41-.55,.41-.98-.13-.77-.4-.97-.7-.3-1.31-.3h-.97v2.58Z"/><path d="M74.54,20.58v3.79c0,.67-.19,1.2-.58,1.58s-.93,.57-1.63,.57-1.21-.19-1.59-.57-.57-.91-.57-1.59v-3.77h.41v3.79c0,.56,.16,1,.47,1.32s.75,.47,1.33,.47,.99-.15,1.3-.46,.46-.74,.46-1.28v-3.83h.41Z"/><path d="M79.7,26.43h-4.07v-.3l3.43-5.17h-3.27v-.38h3.82v.3l-3.44,5.17h3.53v.38Zm-.83-7.57c-.45,.5-.78,.92-.97,1.25h-.39c-.2-.34-.53-.76-.97-1.25v-.07h.28c.3,.25,.6,.53,.89,.83,.29-.3,.58-.58,.89-.83h.28v.07Z"/><path d="M84.06,26.43h-3.2v-5.86h3.2v.38h-2.79v2.22h2.64v.38h-2.64v2.51h2.79v.38Z"/><path d="M89.64,26.43h-.41l-3.47-5.2h-.03c.03,.62,.05,1.09,.05,1.4v3.8h-.39v-5.86h.41l3.47,5.19h.02c-.02-.48-.04-.94-.04-1.37v-3.82h.4v5.86Z"/><path d="M91.24,20.04c.19-.21,.39-.44,.58-.69s.32-.43,.39-.56h.56v.07c-.1,.14-.26,.32-.49,.55s-.49,.46-.76,.69h-.28v-.06Zm.06,6.39v-5.86h.41v5.86h-.41Z"/><path d="M99.03,22.26c0,.57-.19,1-.58,1.3s-.93,.45-1.63,.45h-.91v2.42h-.41v-5.86h1.43c1.39,0,2.09,.56,2.09,1.68Zm-3.12,1.4h.81c.66,0,1.14-.11,1.43-.33s.44-.57,.44-1.06c0-.45-.14-.79-.42-1s-.71-.33-1.29-.33h-.97v2.72Z"/><path d="M100.71,23.88v2.55h-.41v-5.86h1.39c.73,0,1.26,.13,1.61,.4s.52,.67,.52,1.21c0,.39-.1,.72-.31,.99s-.52,.46-.94,.58l1.59,2.67h-.49l-1.51-2.55h-1.45Zm0-.35h1.12c.49,0,.88-.11,1.15-.33s.41-.55,.41-.98-.13-.77-.4-.97-.7-.3-1.31-.3h-.97v2.58Z"/><path d="M110.1,23.5c0,.93-.23,1.66-.7,2.21s-1.11,.81-1.92,.81-1.45-.27-1.92-.81-.7-1.28-.7-2.21,.23-1.67,.7-2.2,1.11-.8,1.92-.8,1.46,.27,1.92,.81,.69,1.27,.69,2.21Zm-4.79,0c0,.84,.19,1.49,.56,1.94s.91,.69,1.61,.69,1.24-.23,1.62-.68,.56-1.1,.56-1.95-.19-1.49-.56-1.94-.91-.68-1.61-.68-1.23,.23-1.61,.68-.57,1.1-.57,1.93Z"/><path d="M116.15,26.43l-2.18-5.41h-.03c.02,.33,.03,.67,.03,1.02v4.39h-.39v-5.86h.63l2.08,5.15h.02l2.08-5.15h.62v5.86h-.41v-4.44c0-.31,.02-.63,.05-.96h-.03l-2.19,5.4h-.26Z"/><path d="M123.85,26.43h-3.2v-5.86h3.2v.38h-2.79v2.22h2.64v.38h-2.64v2.51h2.79v.38Zm-.47-7.57c-.45,.5-.78,.92-.97,1.25h-.39c-.2-.34-.53-.76-.97-1.25v-.07h.28c.3,.25,.6,.53,.89,.83,.29-.3,.58-.58,.89-.83h.28v.07Z"/><path d="M128.41,24.92c0,.49-.18,.88-.54,1.16s-.84,.43-1.43,.43c-.72,0-1.26-.08-1.65-.24v-.41c.42,.18,.96,.27,1.61,.27,.48,0,.86-.11,1.14-.33s.42-.51,.42-.87c0-.22-.05-.41-.14-.55s-.25-.28-.46-.4-.52-.25-.93-.39c-.6-.21-1.01-.43-1.24-.67s-.34-.56-.34-.96c0-.44,.17-.8,.51-1.07s.78-.41,1.32-.41,1.07,.1,1.55,.31l-.15,.35c-.49-.2-.95-.3-1.39-.3s-.78,.1-1.03,.3-.38,.47-.38,.82c0,.22,.04,.39,.12,.53s.21,.26,.39,.37,.49,.24,.92,.4c.46,.16,.8,.31,1.03,.46s.4,.32,.5,.5,.16,.42,.16,.68Z"/><path d="M131.18,26.43h-.41v-5.47h-1.9v-.38h4.22v.38h-1.9v5.47Z"/><path d="M138.87,23.5c0,.93-.23,1.66-.7,2.21s-1.11,.81-1.92,.81-1.45-.27-1.92-.81-.7-1.28-.7-2.21,.23-1.67,.7-2.2,1.11-.8,1.92-.8,1.46,.27,1.92,.81,.69,1.27,.69,2.21Zm-4.79,0c0,.84,.19,1.49,.56,1.94s.91,.69,1.61,.69,1.24-.23,1.62-.68,.56-1.1,.56-1.95-.19-1.49-.56-1.94-.91-.68-1.61-.68-1.23,.23-1.61,.68c-.38,.45-.57,1.1-.57,1.93Z"/><path d="M62.18,36.73c0,1.47-.39,2.59-1.16,3.34s-1.91,1.13-3.41,1.13h-2.1v-8.79h2.37c1.4,0,2.47,.37,3.2,1.1s1.1,1.8,1.1,3.21Zm-.67,.02c0-1.26-.32-2.2-.96-2.84s-1.58-.95-2.82-.95h-1.62v7.7h1.45c2.62,0,3.94-1.3,3.94-3.91Z"/><path d="M71.58,36.8c0,1.39-.35,2.5-1.05,3.31s-1.66,1.22-2.88,1.22-2.18-.41-2.88-1.22-1.05-1.92-1.05-3.32,.35-2.5,1.05-3.3,1.66-1.2,2.88-1.2,2.19,.4,2.88,1.21,1.04,1.91,1.04,3.31Zm-7.19,0c0,1.26,.28,2.23,.84,2.92s1.37,1.03,2.42,1.03,1.87-.34,2.42-1.02,.84-1.66,.84-2.93-.28-2.24-.84-2.91-1.36-1.01-2.41-1.01-1.85,.34-2.42,1.02-.85,1.65-.85,2.9Z"/><path d="M77.46,41.2l-3.27-8.11h-.05c.03,.5,.05,1.01,.05,1.53v6.59h-.59v-8.79h.95l3.11,7.73h.04l3.11-7.73h.93v8.79h-.62v-6.66c0-.46,.02-.95,.07-1.44h-.05l-3.29,8.1h-.39Z"/><path d="M88.45,38.1h-3.57l-1.23,3.1h-.68l3.53-8.82h.39l3.46,8.82h-.69l-1.22-3.1Zm-3.35-.55h3.14l-1.2-3.17c-.1-.25-.22-.59-.36-1.03-.11,.38-.23,.73-.35,1.05l-1.23,3.15Z"/><path d="M96.96,41.2h-6.11v-.46l5.14-7.75h-4.91v-.58h5.73v.46l-5.16,7.75h5.29v.58Zm-1.24-11.36c-.68,.75-1.17,1.38-1.45,1.87h-.59c-.3-.51-.79-1.14-1.45-1.87v-.1h.42c.46,.38,.9,.79,1.33,1.24,.43-.46,.88-.87,1.33-1.24h.42v.1Z"/><path d="M98.69,41.2v-8.79h.61v8.21h4.19v.58h-4.8Z"/><path d="M105.01,41.2v-8.79h.61v8.79h-.61Z"/><path d="M111.86,32.84c-1.1,0-1.97,.35-2.6,1.06s-.95,1.67-.95,2.9,.3,2.23,.9,2.92,1.45,1.04,2.56,1.04c.74,0,1.41-.09,2.03-.28v.54c-.58,.2-1.31,.31-2.18,.31-1.23,0-2.21-.4-2.91-1.2s-1.06-1.91-1.06-3.34c0-.89,.17-1.68,.51-2.36s.83-1.21,1.46-1.58,1.37-.56,2.21-.56,1.62,.16,2.3,.48l-.25,.55c-.64-.32-1.31-.48-2.02-.48Z"/><path d="M120.55,41.2h-4.8v-8.79h4.8v.56h-4.19v3.32h3.95v.56h-3.95v3.77h4.19v.56Z"/></g></g></svg>